<svg xmlns="http://www.w3.org/2000/svg" viewBox="0 0 384 534" role="img" aria-label="Meteogram for Synthetic Ridge, model ensemble-wide, 2000-01-01 12:00 to 17:00 (Etc/UTC): surface metric strips above a time-height field; derived series, isotherms, shading overlays and winds aloft are drawn over the profile." class="meteo-gram">
<style>
.meteo-gram text { font-family: var(--meteo-gram-font, "IBM Plex Sans", ui-sans-serif, system-ui, sans-serif); }
.meteo-gram .meteo-gram-mono { font-family: var(--meteo-gram-font-mono, "IBM Plex Mono", ui-monospace, monospace); }
.meteo-gram-frame { fill: var(--meteo-gram-surface, #fffdf8); stroke: var(--meteo-gram-rule, #776956); }
.meteo-gram-strip-frame { fill: var(--meteo-gram-strip-bg, #f2f4f1); stroke: var(--meteo-gram-rule, #776956); }
.meteo-gram-gridline { stroke: var(--meteo-gram-rule, #776956); }
.meteo-gram-hourline { stroke: var(--meteo-gram-ink, #152529); }
.meteo-gram-text { fill: var(--meteo-gram-ink, #152529); }
.meteo-gram-text-soft { fill: var(--meteo-gram-ink-soft, #2f454a); }
.meteo-gram-text-mute { fill: var(--meteo-gram-ink-mute, #40565a); }
.meteo-gram-strip-name { fill: var(--meteo-gram-ink, #152529); font-size: var(--meteo-gram-text-strip-name, 10.5px); font-weight: 700; }
.meteo-gram-strip-unit { fill: var(--meteo-gram-ink-mute, #40565a); font-size: var(--meteo-gram-text-strip-unit, 9.5px); }
.meteo-gram-strip-scale { fill: var(--meteo-gram-ink-mute, #40565a); font-size: var(--meteo-gram-text-strip-scale, 8px); }
.meteo-gram-tick { fill: var(--meteo-gram-ink-mute, #40565a); font-size: var(--meteo-gram-text-tick, 10.5px); }
.meteo-gram-hour-tick { fill: var(--meteo-gram-ink-mute, #40565a); font-size: var(--meteo-gram-text-hour-tick, 11px); }
.meteo-gram-series-label { font-size: var(--meteo-gram-text-series-label, 10.5px); font-weight: 700; }
.meteo-gram-launch-label { fill: var(--meteo-gram-ink, #152529); font-size: var(--meteo-gram-text-launch, 10.5px); font-weight: 600; }
.meteo-gram-surface-temp { fill: var(--meteo-gram-temp, #913b0c); font-size: var(--meteo-gram-text-surface-temp, 9.5px); font-weight: 700; }
.meteo-gram-haloed-text { stroke: var(--meteo-gram-halo-text, var(--meteo-gram-halo, #fffdf8)); paint-order: stroke; }
.meteo-gram-halo { stroke: var(--meteo-gram-halo-series, transparent); }
.meteo-gram-selected-column { fill: var(--meteo-gram-accent, #913b0c); opacity: 0.05; }
.meteo-gram-selected-line { stroke: var(--meteo-gram-accent, #913b0c); }
.meteo-gram-selection-column { fill: var(--meteo-gram-selection, #913b0c); opacity: 0.07; }
.meteo-gram-selection-line { stroke: var(--meteo-gram-selection, #913b0c); }
.meteo-gram-selection-ring { stroke: var(--meteo-gram-selection, #913b0c); }
.meteo-gram-launch-line { stroke: var(--meteo-gram-ink, #152529); }
.meteo-gram-strip-pressure { stroke: var(--meteo-gram-pressure, #963f36); }
.meteo-gram-strip-pressure-area, .meteo-gram-strip-pressure-band { fill: var(--meteo-gram-pressure, #963f36); }
.meteo-gram-strip-precipitation { stroke: var(--meteo-gram-rain, #207a83); }
.meteo-gram-strip-precipitation-area, .meteo-gram-strip-precipitation-band { fill: var(--meteo-gram-rain, #207a83); }
.meteo-gram-strip-cloudCover { stroke: var(--meteo-gram-cloud, #5b6969); }
.meteo-gram-strip-cloudCover-area, .meteo-gram-strip-cloudCover-band { fill: var(--meteo-gram-cloud, #5b6969); }
.meteo-gram-strip-thermalStrength { stroke: var(--meteo-gram-lift, #9a7500); }
.meteo-gram-strip-thermalStrength-area, .meteo-gram-strip-thermalStrength-band { fill: var(--meteo-gram-lift, #9a7500); }
.meteo-gram-strip-buoyancyShear { stroke: var(--meteo-gram-bs, #6d597a); }
.meteo-gram-strip-buoyancyShear-area, .meteo-gram-strip-buoyancyShear-band { fill: var(--meteo-gram-bs, #6d597a); }
.meteo-gram-strip-smoke { stroke: var(--meteo-gram-smoke, #8c5a3c); }
.meteo-gram-strip-smoke-area, .meteo-gram-strip-smoke-band { fill: var(--meteo-gram-smoke, #8c5a3c); }
.meteo-gram-smoke-cell { fill: var(--meteo-gram-smoke, #8c5a3c); }
.meteo-gram-strip-observedIrradiance { stroke: var(--meteo-gram-sun, #b07a1a); }
.meteo-gram-strip-observedIrradiance-area, .meteo-gram-strip-observedIrradiance-band { fill: var(--meteo-gram-sun, #b07a1a); }
.meteo-gram-strip-observedIrradiance-dot { fill: var(--meteo-gram-sun, #b07a1a); }
.meteo-gram-dim-cell { fill: var(--meteo-gram-sun-dim, #43404a); }
.meteo-gram-strip-observedAot { stroke: var(--meteo-gram-smoke, #8c5a3c); }
.meteo-gram-strip-observedAot-area, .meteo-gram-strip-observedAot-band { fill: var(--meteo-gram-smoke, #8c5a3c); }
.meteo-gram-strip-observedAot-dot { fill: var(--meteo-gram-smoke, #8c5a3c); }
.meteo-gram-strip-pending { fill: var(--meteo-gram-ink-mute, #40565a); opacity: 0.07; }
.meteo-gram-strip-source { fill: var(--meteo-gram-ink-mute, #40565a); font-size: 8px; font-style: italic; }
.meteo-gram-strip-divider { stroke: var(--meteo-gram-rule, #776956); stroke-dasharray: 2 3; stroke-width: 0.8; }
.meteo-gram-strip-divider-label { fill: var(--meteo-gram-ink-mute, #40565a); font-size: 8px; font-style: italic; letter-spacing: 0.04em; }
.meteo-gram-strip-cape { stroke: var(--meteo-gram-cape, #8a4a08); }
.meteo-gram-strip-cape-area, .meteo-gram-strip-cape-band { fill: var(--meteo-gram-cape, #8a4a08); }
.meteo-gram-cape-calm { fill: var(--meteo-gram-cape-calm, #dde3d5); opacity: 0.6; }
.meteo-gram-cape-watch { fill: var(--meteo-gram-cape-watch, #e7c46c); opacity: 0.6; }
.meteo-gram-cape-risk { fill: var(--meteo-gram-cape-risk, #d98243); opacity: 0.6; }
.meteo-gram-cape-severe { fill: var(--meteo-gram-cape-severe, #c04f3a); opacity: 0.6; }
.meteo-gram-cape-capped { opacity: 0.28; }
.meteo-gram-bs-unopposed { fill: var(--meteo-gram-bs, #6d597a); opacity: 0.18; }
.meteo-gram-cloud-cell { fill: var(--meteo-gram-cloud, #5b6969); }
.meteo-gram-strip-row-label { fill: var(--meteo-gram-ink-mute, #40565a); font-size: var(--meteo-gram-text-row-tag, 7.5px); }
.meteo-gram-gust { fill: var(--meteo-gram-gust, #355963); font-size: var(--meteo-gram-text-gust, 9.5px); font-weight: 700; }
.meteo-gram-series-pbl { stroke: var(--meteo-gram-pbl, #56609b); }
.meteo-gram-series-pbl-band { fill: var(--meteo-gram-pbl, #56609b); opacity: 0.16; }
.meteo-gram-stab-very-unstable { fill: var(--meteo-gram-stab-very-unstable, #d95f52); }
.meteo-gram-stab-unstable { fill: var(--meteo-gram-stab-unstable, #de8f3a); }
.meteo-gram-stab-conditional-strong { fill: var(--meteo-gram-stab-conditional-strong, #c67eb6); }
.meteo-gram-stab-conditional { fill: var(--meteo-gram-stab-conditional, #aeaad9); }
.meteo-gram-stab-near-neutral { fill: var(--meteo-gram-stab-near-neutral, #d7b29b); }
.meteo-gram-stab-stable { fill: var(--meteo-gram-stab-stable, #768bb9); }
.meteo-gram-stab-inverted { fill: var(--meteo-gram-stab-inverted, #9aa19d); }
.meteo-gram-stab-strong-inversion { fill: var(--meteo-gram-stab-strong-inversion, #b3b9b6); }
.meteo-gram-cloud-hatch-line { stroke: var(--meteo-gram-ink-soft, #2f454a); }
.meteo-gram-cloud-medium { fill: var(--meteo-gram-cloud, #5b6969); opacity: 0.22; }
.meteo-gram-cloud-light { fill: var(--meteo-gram-cloud, #5b6969); opacity: 0.1; }
.meteo-gram-ti-weak { fill: var(--meteo-gram-ti-weak, #f4e3c0); opacity: 0.55; }
.meteo-gram-ti-fair { fill: var(--meteo-gram-ti-fair, #ecc57e); opacity: 0.55; }
.meteo-gram-ti-good { fill: var(--meteo-gram-ti-good, #de9b4e); opacity: 0.55; }
.meteo-gram-ti-strong { fill: var(--meteo-gram-ti-strong, #c96a33); opacity: 0.55; }
.meteo-gram-shear-light { fill: var(--meteo-gram-shear-light, #cfc3de); opacity: 0.5; }
.meteo-gram-shear-moderate { fill: var(--meteo-gram-shear-moderate, #a58ec4); opacity: 0.5; }
.meteo-gram-shear-strong { fill: var(--meteo-gram-shear-strong, #7b5ea7); opacity: 0.5; }
.meteo-gram-rh-60 { fill: var(--meteo-gram-rh-60, #d3e0e3); opacity: 0.5; }
.meteo-gram-rh-80 { fill: var(--meteo-gram-rh-80, #a9c7cf); opacity: 0.5; }
.meteo-gram-rh-95 { fill: var(--meteo-gram-rh-95, #7fadbb); opacity: 0.5; }
.meteo-gram-omega-lift { fill: var(--meteo-gram-omega-lift, #8dc2a0); opacity: 0.4; }
.meteo-gram-omega-lift-strong { fill: var(--meteo-gram-omega-lift-strong, #56a377); opacity: 0.5; }
.meteo-gram-omega-sink { fill: var(--meteo-gram-omega-sink, #d3a68f); opacity: 0.4; }
.meteo-gram-omega-sink-strong { fill: var(--meteo-gram-omega-sink-strong, #bd7d5c); opacity: 0.5; }
.meteo-gram-series-boundary { stroke: var(--meteo-gram-boundary, #a46b10); }
.meteo-gram-series-boundary-band { fill: var(--meteo-gram-boundary, #a46b10); opacity: 0.16; }
.meteo-gram-series-cloud-base { stroke: var(--meteo-gram-cloud-base, #355963); }
.meteo-gram-series-cloud-base-band { fill: var(--meteo-gram-cloud-base, #355963); opacity: 0.16; }
.meteo-gram-series-usable { stroke: var(--meteo-gram-usable, #2179ad); }
.meteo-gram-series-usable-band { fill: var(--meteo-gram-usable, #2179ad); opacity: 0.16; }
.meteo-gram-isotherm { stroke: var(--meteo-gram-ink, #152529); }
.meteo-gram-isotherm-freezing { stroke: var(--meteo-gram-freezing, #2b748f); }
.meteo-gram-isotherm-label { fill: var(--meteo-gram-ink, #152529); }
.meteo-gram-isotherm-label-freezing { fill: var(--meteo-gram-freezing, #2b748f); }
.meteo-gram-dewpoint-isoline { stroke: var(--meteo-gram-dewpoint, #3a7d4f); }
.meteo-gram-dewpoint-label { fill: var(--meteo-gram-dewpoint, #3a7d4f); }
.meteo-gram-barb { stroke: var(--meteo-gram-wind, #ffffff); }
.meteo-gram-barb-fill { fill: var(--meteo-gram-wind, #ffffff); stroke: var(--meteo-gram-wind, #ffffff); }
.meteo-gram-barb-halo { stroke: var(--meteo-gram-halo-barb, #355963); }
.meteo-gram-barb-fill-halo { fill: var(--meteo-gram-halo-barb, #355963); stroke: var(--meteo-gram-halo-barb, #355963); }
.meteo-gram-marker-wing { fill: var(--meteo-gram-usable, #2179ad); stroke: var(--meteo-gram-usable, #2179ad); }
.meteo-gram-marker-cloud { fill: var(--meteo-gram-cloud-marker, #f8f3d8); stroke: var(--meteo-gram-cloud-base, #355963); }
.meteo-gram-marker-halo { fill: var(--meteo-gram-halo-marker, var(--meteo-gram-halo, #fffdf8)); stroke: var(--meteo-gram-halo-marker, var(--meteo-gram-halo, #fffdf8)); }
.meteo-gram-key-label { fill: var(--meteo-gram-ink-mute, #40565a); font-size: var(--meteo-gram-text-tick, 10.5px); }
.meteo-gram-key-title { fill: var(--meteo-gram-ink, #152529); font-size: var(--meteo-gram-text-key-title, 9px); font-weight: 700; letter-spacing: 0.08em; }
.meteo-gram-key-boundary { fill: var(--meteo-gram-ink-mute, #40565a); font-size: var(--meteo-gram-text-key-boundary, 8px); }
.meteo-gram-key-group { fill: var(--meteo-gram-key-group-ink, #ffffff); stroke: var(--meteo-gram-key-group-halo, #00000066); paint-order: stroke; font-size: var(--meteo-gram-text-key-group, 8px); font-weight: 700; }
.meteo-gram-key-band { fill: var(--meteo-gram-ink-mute, #40565a); opacity: 0.16; }
.meteo-gram-key-frame { fill: none; stroke: var(--meteo-gram-rule, #776956); }
</style>
<defs><pattern id="scenario-ensemble-wide-only-cloud-hatch" width="7" height="7" patternUnits="userSpaceOnUse" patternTransform="rotate(45)"><line x1="0" y1="0" x2="0" y2="7" class="meteo-gram-cloud-hatch-line" stroke-width="1.2"/></pattern></defs>
<rect x="60" y="20" width="264" height="25" class="meteo-gram-strip-frame" stroke-width="0.7"/>
<line x1="60" y1="32.5" x2="324" y2="32.5" class="meteo-gram-gridline" stroke-width="0.6" stroke-dasharray="2 4" opacity="0.45"/>
<path d="M60,20 C63.67,20 71,19.17 82,20 C93,20.83 111.33,23.33 126,25 C140.67,26.67 155.33,28.33 170,30 C184.67,31.67 199.33,33.33 214,35 C228.67,36.67 243.33,38.33 258,40 C272.67,41.67 291,44.17 302,45 C313,45.83 320.33,45 324,45 L324,45 C320.33,45 313,45.83 302,45 C291,44.17 272.67,41.67 258,40 C243.33,38.33 228.67,36.67 214,35 C199.33,33.33 184.67,31.67 170,30 C155.33,28.33 140.67,26.67 126,25 C111.33,23.33 93,20.83 82,20 C71,19.17 63.67,20 60,20 Z" class="meteo-gram-strip-pressure-band"/>
<path d="M60,20 C63.67,20 71,19.17 82,20 C93,20.83 111.33,23.33 126,25 C140.67,26.67 155.33,28.33 170,30 C184.67,31.67 199.33,33.33 214,35 C228.67,36.67 243.33,38.33 258,40 C272.67,41.67 291,44.17 302,45 C313,45.83 320.33,45 324,45 L324.00,45 L60.00,45 Z" class="meteo-gram-strip-pressure-area" opacity="0.3"/>
<path d="M60,20 C63.67,20 71,19.17 82,20 C93,20.83 111.33,23.33 126,25 C140.67,26.67 155.33,28.33 170,30 C184.67,31.67 199.33,33.33 214,35 C228.67,36.67 243.33,38.33 258,40 C272.67,41.67 291,44.17 302,45 C313,45.83 320.33,45 324,45" class="meteo-gram-strip-pressure" fill="none" stroke-width="1.7" stroke-linecap="round" stroke-linejoin="round"/>
<text x="52" y="31" text-anchor="end" class="meteo-gram-strip-name">Pressure</text>
<text x="52" y="42" text-anchor="end" class="meteo-gram-strip-unit">kPa</text>
<text x="332" y="28" class="meteo-gram-strip-scale meteo-gram-mono">90</text>
<text x="332" y="45" class="meteo-gram-strip-scale meteo-gram-mono">89.9</text>
<rect x="60" y="50" width="264" height="25" class="meteo-gram-strip-frame" stroke-width="0.7"/>
<line x1="60" y1="62.5" x2="324" y2="62.5" class="meteo-gram-gridline" stroke-width="0.6" stroke-dasharray="2 4" opacity="0.45"/>
<path d="M60,75 C63.67,75 71,75 82,75 C93,75 111.33,75 126,75 C140.67,75 155.33,75 170,75 C184.67,75 199.33,75 214,75 C228.67,75 243.33,75 258,75 C272.67,75 291,75 302,75 C313,75 320.33,75 324,75 L324,75 C320.33,75 313,75 302,75 C291,75 272.67,75 258,75 C243.33,75 228.67,75 214,75 C199.33,75 184.67,75 170,75 C155.33,75 140.67,75 126,75 C111.33,75 93,75 82,75 C71,75 63.67,75 60,75 Z" class="meteo-gram-strip-precipitation-band"/>
<path d="M60,75 C63.67,75 71,75 82,75 C93,75 111.33,75 126,75 C140.67,75 155.33,75 170,75 C184.67,75 199.33,75 214,75 C228.67,75 243.33,75 258,75 C272.67,75 291,75 302,75 C313,75 320.33,75 324,75 L324.00,75 L60.00,75 Z" class="meteo-gram-strip-precipitation-area" opacity="0.3"/>
<path d="M60,75 C63.67,75 71,75 82,75 C93,75 111.33,75 126,75 C140.67,75 155.33,75 170,75 C184.67,75 199.33,75 214,75 C228.67,75 243.33,75 258,75 C272.67,75 291,75 302,75 C313,75 320.33,75 324,75" class="meteo-gram-strip-precipitation" fill="none" stroke-width="1.7" stroke-linecap="round" stroke-linejoin="round"/>
<text x="52" y="61" text-anchor="end" class="meteo-gram-strip-name">Precip</text>
<text x="52" y="72" text-anchor="end" class="meteo-gram-strip-unit">mm/h</text>
<text x="332" y="58" class="meteo-gram-strip-scale meteo-gram-mono">0.5</text>
<text x="332" y="75" class="meteo-gram-strip-scale meteo-gram-mono">0</text>
<rect x="60" y="80" width="264" height="25" class="meteo-gram-strip-frame" stroke-width="0.7"/>
<line x1="60" y1="92.5" x2="324" y2="92.5" class="meteo-gram-gridline" stroke-width="0.6" stroke-dasharray="2 4" opacity="0.45"/>
<path d="M60,101.25 C63.67,101.25 71,101.25 82,101.25 C93,101.25 111.33,101.25 126,101.25 C140.67,101.25 155.33,101.25 170,101.25 C184.67,101.25 199.33,101.25 214,101.25 C228.67,101.25 243.33,101.25 258,101.25 C272.67,101.25 291,101.25 302,101.25 C313,101.25 320.33,101.25 324,101.25 L324,101.25 C320.33,101.25 313,101.25 302,101.25 C291,101.25 272.67,101.25 258,101.25 C243.33,101.25 228.67,101.25 214,101.25 C199.33,101.25 184.67,101.25 170,101.25 C155.33,101.25 140.67,101.25 126,101.25 C111.33,101.25 93,101.25 82,101.25 C71,101.25 63.67,101.25 60,101.25 Z" class="meteo-gram-strip-cloudCover-band"/>
<path d="M60,101.25 C63.67,101.25 71,101.25 82,101.25 C93,101.25 111.33,101.25 126,101.25 C140.67,101.25 155.33,101.25 170,101.25 C184.67,101.25 199.33,101.25 214,101.25 C228.67,101.25 243.33,101.25 258,101.25 C272.67,101.25 291,101.25 302,101.25 C313,101.25 320.33,101.25 324,101.25 L324.00,105 L60.00,105 Z" class="meteo-gram-strip-cloudCover-area" opacity="0.3"/>
<path d="M60,101.25 C63.67,101.25 71,101.25 82,101.25 C93,101.25 111.33,101.25 126,101.25 C140.67,101.25 155.33,101.25 170,101.25 C184.67,101.25 199.33,101.25 214,101.25 C228.67,101.25 243.33,101.25 258,101.25 C272.67,101.25 291,101.25 302,101.25 C313,101.25 320.33,101.25 324,101.25" class="meteo-gram-strip-cloudCover" fill="none" stroke-width="1.7" stroke-linecap="round" stroke-linejoin="round"/>
<text x="52" y="91" text-anchor="end" class="meteo-gram-strip-name">Cloud</text>
<text x="52" y="102" text-anchor="end" class="meteo-gram-strip-unit">%</text>
<text x="332" y="88" class="meteo-gram-strip-scale meteo-gram-mono">100</text>
<text x="332" y="105" class="meteo-gram-strip-scale meteo-gram-mono">0</text>
<rect x="60" y="110" width="264" height="25" class="meteo-gram-strip-frame" stroke-width="0.7"/>
<line x1="60" y1="122.5" x2="324" y2="122.5" class="meteo-gram-gridline" stroke-width="0.6" stroke-dasharray="2 4" opacity="0.45"/>
<path d="M60,124 C63.67,124 71,124.57 82,124 C93,123.43 111.33,121.74 126,120.58 C140.67,119.43 155.33,117.9 170,117.08 C184.67,116.26 199.33,115.72 214,115.67 C228.67,115.61 243.33,116.17 258,116.75 C272.67,117.33 291,118.76 302,119.17 C313,119.57 320.33,119.17 324,119.17 L324,123 C320.33,123 313,123.4 302,123 C291,122.6 272.67,120.96 258,120.58 C243.33,120.21 228.67,119.92 214,120.75 C199.33,121.58 184.67,124.6 170,125.58 C155.33,126.57 140.67,126.35 126,126.67 C111.33,126.99 93,127.36 82,127.5 C71,127.64 63.67,127.5 60,127.5 Z" class="meteo-gram-strip-thermalStrength-band"/>
<path d="M60,126.58 C63.67,126.58 71,126.67 82,126.58 C93,126.5 111.33,127.25 126,126.08 C140.67,124.92 155.33,121.14 170,119.58 C184.67,118.03 199.33,116.64 214,116.75 C228.67,116.86 243.33,119.5 258,120.25 C272.67,121 291,121.08 302,121.25 C313,121.42 320.33,121.25 324,121.25 L324.00,135 L60.00,135 Z" class="meteo-gram-strip-thermalStrength-area" opacity="0.3"/>
<path d="M60,126.58 C63.67,126.58 71,126.67 82,126.58 C93,126.5 111.33,127.25 126,126.08 C140.67,124.92 155.33,121.14 170,119.58 C184.67,118.03 199.33,116.64 214,116.75 C228.67,116.86 243.33,119.5 258,120.25 C272.67,121 291,121.08 302,121.25 C313,121.42 320.33,121.25 324,121.25" class="meteo-gram-strip-thermalStrength" fill="none" stroke-width="1.7" stroke-linecap="round" stroke-linejoin="round"/>
<text x="52" y="121" text-anchor="end" class="meteo-gram-strip-name">w*</text>
<text x="52" y="132" text-anchor="end" class="meteo-gram-strip-unit">m/s</text>
<text x="332" y="118" class="meteo-gram-strip-scale meteo-gram-mono">3</text>
<text x="332" y="135" class="meteo-gram-strip-scale meteo-gram-mono">0</text>
<rect x="60" y="148" width="264" height="340" class="meteo-gram-frame"/>
<path d="M60 148L324 148L324 488L60 488L60 148ZM60 148L324 148L324 469.47L302 469.47L270.83 469.03L258 468.91L214 469.27L186.5 470.15L166.33 471.17L155.33 471.92L146.17 472.81L138.83 473.81L133.33 474.83L127.83 476.23L124.07 477.52L120.5 479.18L118.34 480.51L116.41 482.01L114.86 483.51L112.52 486.5L111.61 488L60 488L60 148Z" class="meteo-gram-stab-very-unstable" fill-rule="evenodd"/>
<path d="M60 148L324 148L324 469.47L302 469.47L270.83 469.03L258 468.91L214 469.27L186.5 470.15L166.33 471.17L155.33 471.92L146.17 472.81L138.83 473.81L133.33 474.83L127.83 476.23L124.07 477.52L120.5 479.18L118.34 480.51L116.41 482.01L114.86 483.51L112.52 486.5L111.61 488L60 488L60 148ZM60 148L324 148L324 349.11L302 349.11L208.5 350.14L140.67 350.89L82 351.54L60 351.54L60 148ZM235.92 407.12L302 406.39L324 406.39L324 466.13L274.5 466.27L258 466.4L245.17 466.76L237.83 467.05L212.17 467.29L173.67 467.55L153.5 467.86L142.5 468.2L126 469.01L116.83 469.44L111.33 470.05L109.5 470.41L106.48 471.52L104.63 473.02L103.67 474.52L102.68 477.52L102 482.01L101.58 488L60 488L60 408.82L82 408.82L120.5 408.4L188.33 407.65L235.92 407.12Z" class="meteo-gram-stab-unstable" fill-rule="evenodd"/>
<path d="M60 148L324 148L324 349.11L302 349.11L208.5 350.14L140.67 350.89L82 351.54L60 351.54L60 148ZM235.92 407.12L302 406.39L324 406.39L324 466.13L274.5 466.27L258 466.4L245.17 466.76L237.83 467.05L212.17 467.29L173.67 467.55L153.5 467.86L142.5 468.2L126 469.01L116.83 469.44L111.33 470.05L109.5 470.41L106.48 471.52L104.63 473.02L103.67 474.52L102.68 477.52L102 482.01L101.58 488L60 488L60 408.82L82 408.82L120.5 408.4L188.33 407.65L235.92 407.12ZM60 148L324 148L324 302.09L302 302.09L221.33 302.98L153.5 303.73L87.5 304.46L60 304.53L60 148ZM60 479.01L60 477.87L82 477.87L83.98 479.01L86.01 480.51L87.6 482.01L89.93 485L91.55 488L60 488L60 479.01Z" class="meteo-gram-stab-conditional-strong" fill-rule="evenodd"/>
<path d="M60 148L324 148L324 302.09L302 302.09L221.33 302.98L153.5 303.73L87.5 304.46L60 304.53L60 148ZM60 479.01L60 477.87L82 477.87L83.98 479.01L86.01 480.51L87.6 482.01L89.93 485L91.55 488L60 488L60 479.01Z" class="meteo-gram-stab-conditional" fill-rule="evenodd"/>
<path d="M60 148L324 148L324 488L60 488L60 148ZM60 148L324 148L324 488L60 488L60 148Z" class="meteo-gram-cloud-dense" fill-rule="evenodd" fill="url(#scenario-ensemble-wide-only-cloud-hatch)"/>
<path d="M60 148L324 148L324 488L60 488L60 148ZM60 148L324 148L324 488L60 488L60 148Z" class="meteo-gram-cloud-medium" fill-rule="evenodd"/>
<path d="M60 148L324 148L324 488L60 488L60 148ZM60 148L324 148L324 488L60 488L60 148Z" class="meteo-gram-cloud-light" fill-rule="evenodd"/>
<rect x="192" y="20" width="44" height="468" class="meteo-gram-selected-column"/>
<line x1="214" x2="214" y1="20" y2="488" class="meteo-gram-selected-line" stroke-width="1" stroke-dasharray="3 4"/>
<line x1="60" y1="488" x2="324" y2="488" class="meteo-gram-gridline" stroke-width="1"/>
<text x="52" y="491" text-anchor="end" class="meteo-gram-tick">900m</text>
<text x="332" y="491" class="meteo-gram-tick">2953ft</text>
<line x1="60" y1="420" x2="324" y2="420" class="meteo-gram-gridline" stroke-width="1"/>
<text x="52" y="423" text-anchor="end" class="meteo-gram-tick">1599m</text>
<text x="332" y="423" class="meteo-gram-tick">5245ft</text>
<line x1="60" y1="352" x2="324" y2="352" class="meteo-gram-gridline" stroke-width="1"/>
<text x="52" y="355" text-anchor="end" class="meteo-gram-tick">2298m</text>
<text x="332" y="355" class="meteo-gram-tick">7538ft</text>
<line x1="60" y1="284" x2="324" y2="284" class="meteo-gram-gridline" stroke-width="1"/>
<text x="52" y="287" text-anchor="end" class="meteo-gram-tick">2996m</text>
<text x="332" y="287" class="meteo-gram-tick">9831ft</text>
<line x1="60" y1="216" x2="324" y2="216" class="meteo-gram-gridline" stroke-width="1"/>
<text x="52" y="219" text-anchor="end" class="meteo-gram-tick">3695m</text>
<text x="332" y="219" class="meteo-gram-tick">12123ft</text>
<line x1="60" y1="148" x2="324" y2="148" class="meteo-gram-gridline" stroke-width="1"/>
<text x="52" y="151" text-anchor="end" class="meteo-gram-tick">4394m</text>
<text x="332" y="151" class="meteo-gram-tick">14416ft</text>
<line x1="82" x2="82" y1="148" y2="488" class="meteo-gram-hourline" stroke-width="0.6" opacity="0.15"/>
<text x="82" y="506" text-anchor="middle" class="meteo-gram-hour-tick meteo-gram-mono">12</text>
<text x="126" y="506" text-anchor="middle" class="meteo-gram-hour-tick meteo-gram-mono">13</text>
<line x1="170" x2="170" y1="148" y2="488" class="meteo-gram-hourline" stroke-width="0.6" opacity="0.15"/>
<text x="170" y="506" text-anchor="middle" class="meteo-gram-hour-tick meteo-gram-mono">14</text>
<text x="214" y="506" text-anchor="middle" class="meteo-gram-hour-tick meteo-gram-mono">15</text>
<line x1="258" x2="258" y1="148" y2="488" class="meteo-gram-hourline" stroke-width="0.6" opacity="0.15"/>
<text x="258" y="506" text-anchor="middle" class="meteo-gram-hour-tick meteo-gram-mono">16</text>
<text x="302" y="506" text-anchor="middle" class="meteo-gram-hour-tick meteo-gram-mono">17</text>
<text x="82" y="520" text-anchor="middle" class="meteo-gram-surface-temp meteo-gram-mono">19°</text>
<text x="126" y="520" text-anchor="middle" class="meteo-gram-surface-temp meteo-gram-mono">21°</text>
<text x="170" y="520" text-anchor="middle" class="meteo-gram-surface-temp meteo-gram-mono">22°</text>
<text x="214" y="520" text-anchor="middle" class="meteo-gram-surface-temp meteo-gram-mono">24°</text>
<text x="258" y="520" text-anchor="middle" class="meteo-gram-surface-temp meteo-gram-mono">24°</text>
<text x="302" y="520" text-anchor="middle" class="meteo-gram-surface-temp meteo-gram-mono">23°</text>
<line x1="60" x2="324" y1="473.4" y2="473.4" class="meteo-gram-launch-line" stroke-width="1" stroke-dasharray="2 4" opacity="0.68"/>
<text x="67" y="467.4" class="meteo-gram-launch-label meteo-gram-haloed-text" stroke-width="2.5">launch 1050 m</text>
<path d="M82,448.41 C89.33,437.47 111.33,403.81 126,382.73 C140.67,361.65 155.33,341.6 170,321.94 C184.67,302.28 199.33,274.13 214,264.79 C228.67,255.46 243.33,259.14 258,265.93 C272.67,272.72 294.67,298.94 302,305.54 L302,403.61 C294.67,401.58 272.67,393.47 258,391.42 C243.33,389.37 228.67,379.01 214,391.31 C199.33,403.62 184.67,452.45 170,465.24 C155.33,478.03 140.67,467.5 126,468.05 C111.33,468.6 89.33,468.46 82,468.54 Z" class="meteo-gram-series-boundary-band"/>
<path d="M82,381.44 C89.33,381.58 111.33,381.32 126,382.31 C140.67,383.3 155.33,386.82 170,387.37 C184.67,387.93 199.33,386.77 214,385.64 C228.67,384.5 243.33,382.26 258,380.57 C272.67,378.88 294.67,376.35 302,375.51 L302,404.44 C294.67,404.08 272.67,402.34 258,402.29 C243.33,402.25 228.67,403.65 214,404.17 C199.33,404.7 184.67,406.12 170,405.46 C155.33,404.8 140.67,402.16 126,400.22 C111.33,398.28 89.33,394.87 82,393.79 Z" class="meteo-gram-series-cloud-base-band"/>
<path d="M82,453.43 C89.33,445.77 111.33,416.69 126,407.51 C140.67,398.32 155.33,399.74 170,398.33 C184.67,396.92 199.33,400.12 214,399.04 C228.67,397.96 243.33,395.77 258,391.85 C272.67,387.93 294.67,378.23 302,375.51 L302,413.86 C294.67,413.89 272.67,411.81 258,414.07 C243.33,416.32 228.67,420.65 214,427.4 C199.33,434.15 184.67,447.46 170,454.58 C155.33,461.71 140.67,467.14 126,470.14 C111.33,473.15 89.33,472.21 82,472.63 Z" class="meteo-gram-series-usable-band"/>
<path d="M82,468.54 C89.33,468.46 111.33,489.84 126,468.05 C140.67,446.26 155.33,369.48 170,337.8 C184.67,306.13 199.33,287.82 214,278.01 C228.67,268.19 243.33,271.68 258,278.91 C272.67,286.14 294.67,314.32 302,321.41" class="meteo-gram-halo" fill="none" stroke-width="3.8" stroke-linecap="round" stroke-linejoin="round" stroke-dasharray="10 5"/>
<path d="M82,468.54 C89.33,468.46 111.33,489.84 126,468.05 C140.67,446.26 155.33,369.48 170,337.8 C184.67,306.13 199.33,287.82 214,278.01 C228.67,268.19 243.33,271.68 258,278.91 C272.67,286.14 294.67,314.32 302,321.41" class="meteo-gram-series-boundary" fill="none" stroke-width="2" stroke-linecap="round" stroke-linejoin="round" stroke-dasharray="10 5"/>
<path d="M82,391.46 C89.33,391.37 111.33,390.12 126,390.89 C140.67,391.67 155.33,394.88 170,396.09 C184.67,397.3 199.33,398.11 214,398.15 C228.67,398.19 243.33,397.43 258,396.35 C272.67,395.27 294.67,392.46 302,391.68" class="meteo-gram-halo" fill="none" stroke-width="3.6" stroke-linecap="round" stroke-linejoin="round" stroke-dasharray="1 5"/>
<path d="M82,391.46 C89.33,391.37 111.33,390.12 126,390.89 C140.67,391.67 155.33,394.88 170,396.09 C184.67,397.3 199.33,398.11 214,398.15 C228.67,398.19 243.33,397.43 258,396.35 C272.67,395.27 294.67,392.46 302,391.68" class="meteo-gram-series-cloud-base" fill="none" stroke-width="1.8" stroke-linecap="round" stroke-linejoin="round" stroke-dasharray="1 5"/>
<path d="M82,470.78 C89.33,468.21 111.33,463.26 126,455.39 C140.67,447.53 155.33,432.11 170,423.59 C184.67,415.08 199.33,408.37 214,404.29 C228.67,400.21 243.33,401.2 258,399.1 C272.67,397 294.67,392.92 302,391.68" class="meteo-gram-halo" fill="none" stroke-width="4.1" stroke-linecap="round" stroke-linejoin="round"/>
<path d="M82,470.78 C89.33,468.21 111.33,463.26 126,455.39 C140.67,447.53 155.33,432.11 170,423.59 C184.67,415.08 199.33,408.37 214,404.29 C228.67,400.21 243.33,401.2 258,399.1 C272.67,397 294.67,392.92 302,391.68" class="meteo-gram-series-usable" fill="none" stroke-width="2.3" stroke-linecap="round" stroke-linejoin="round"/>
<path d="M82,250.29 C89.33,250.21 111.33,249.96 126,249.8 C140.67,249.64 155.33,249.48 170,249.31 C184.67,249.15 199.33,248.99 214,248.83 C228.67,248.66 243.33,248.5 258,248.34 C272.67,248.18 294.67,247.93 302,247.85" class="meteo-gram-halo" fill="none" stroke-width="3.5" stroke-linecap="round" stroke-linejoin="round" stroke-dasharray="7 3 1 3"/>
<path d="M82,250.29 C89.33,250.21 111.33,249.96 126,249.8 C140.67,249.64 155.33,249.48 170,249.31 C184.67,249.15 199.33,248.99 214,248.83 C228.67,248.66 243.33,248.5 258,248.34 C272.67,248.18 294.67,247.93 302,247.85" class="meteo-gram-isotherm meteo-gram-isotherm-freezing" fill="none" stroke-width="1.7" stroke-linecap="round" stroke-linejoin="round" stroke-dasharray="7 3 1 3"/>
<path d="M82,371.23 C89.33,371.15 111.33,370.9 126,370.74 C140.67,370.58 155.33,370.42 170,370.26 C184.67,370.09 199.33,369.93 214,369.77 C228.67,369.61 243.33,369.44 258,369.28 C272.67,369.12 294.67,368.88 302,368.8" class="meteo-gram-halo" fill="none" stroke-width="2.8" stroke-linecap="round" stroke-linejoin="round"/>
<path d="M82,371.23 C89.33,371.15 111.33,370.9 126,370.74 C140.67,370.58 155.33,370.42 170,370.26 C184.67,370.09 199.33,369.93 214,369.77 C228.67,369.61 243.33,369.44 258,369.28 C272.67,369.12 294.67,368.88 302,368.8" class="meteo-gram-isotherm" fill="none" stroke-width="1" stroke-linecap="round" stroke-linejoin="round"/>
<path d="M126,484.01 C133.33,482.97 155.33,479.34 170,477.78 C184.67,476.23 199.33,475.25 214,474.69 C228.67,474.12 243.33,474.18 258,474.38 C272.67,474.57 294.67,475.59 302,475.84" class="meteo-gram-halo" fill="none" stroke-width="2.8" stroke-linecap="round" stroke-linejoin="round"/>
<path d="M126,484.01 C133.33,482.97 155.33,479.34 170,477.78 C184.67,476.23 199.33,475.25 214,474.69 C228.67,474.12 243.33,474.18 258,474.38 C272.67,474.57 294.67,475.59 302,475.84" class="meteo-gram-isotherm" fill="none" stroke-width="1" stroke-linecap="round" stroke-linejoin="round"/>
<g transform="translate(214 398.15)"><path d="M-7 2.5h14a3.2 3.2 0 0 0-.6-6.3A5 5 0 0 0-3-5a4 4 0 0 0-4 4 3 3 0 0 0 0 3.5Z" class="meteo-gram-marker-halo" stroke-width="2.4"/><path d="M-7 2.5h14a3.2 3.2 0 0 0-.6-6.3A5 5 0 0 0-3-5a4 4 0 0 0-4 4 3 3 0 0 0 0 3.5Z" class="meteo-gram-marker-cloud" stroke-width="0.6"/></g>
<g transform="translate(214 404.29)"><path d="M-9-1.6Q0-9.6 9-1.6Q8.1-.7 7.2-1.1Q0-6.2-7.2-1.1Q-8.1-.7-9-1.6ZM-6-2.2L-.4 3.6.2 3.1-5.3-2.6ZM6-2.2L.4 3.6-.2 3.1 5.3-2.6ZM0 2.8a1.5 1.5 0 1 0 .01 0Z" class="meteo-gram-marker-halo" stroke-width="2.4"/><path d="M-9-1.6Q0-9.6 9-1.6Q8.1-.7 7.2-1.1Q0-6.2-7.2-1.1Q-8.1-.7-9-1.6ZM-6-2.2L-.4 3.6.2 3.1-5.3-2.6ZM6-2.2L.4 3.6-.2 3.1 5.3-2.6ZM0 2.8a1.5 1.5 0 1 0 .01 0Z" class="meteo-gram-marker-wing" stroke-width="0.6"/></g>
<g transform="translate(82 477.38) rotate(355) scale(0.85)"><path d="M0 5 L0 -20 M0 -17.8 L4.5 -15.4" class="meteo-gram-barb-halo" stroke-width="2.6" fill="none" stroke-linecap="round"/><path d="M0 5 L0 -20 M0 -17.8 L4.5 -15.4" class="meteo-gram-barb" stroke-width="1.3" fill="none" stroke-linecap="round"/></g>
<g transform="translate(82 419.88) rotate(358) scale(0.85)"><path d="M0 5 L0 -20 M0 -20 L8 -15.6" class="meteo-gram-barb-halo" stroke-width="2.6" fill="none" stroke-linecap="round"/><path d="M0 5 L0 -20 M0 -20 L8 -15.6" class="meteo-gram-barb" stroke-width="1.3" fill="none" stroke-linecap="round"/></g>
<g transform="translate(82 371.23) rotate(340) scale(0.85)"><path d="M0 5 L0 -20 M0 -20 L8 -15.6 M0 -15.2 L4.5 -12.8" class="meteo-gram-barb-halo" stroke-width="2.6" fill="none" stroke-linecap="round"/><path d="M0 5 L0 -20 M0 -20 L8 -15.6 M0 -15.2 L4.5 -12.8" class="meteo-gram-barb" stroke-width="1.3" fill="none" stroke-linecap="round"/></g>
<g transform="translate(82 283.65) rotate(15) scale(0.85)"><path d="M0 5 L0 -20 M0 -20 L8 -15.6 M0 -15.2 L8 -10.8" class="meteo-gram-barb-halo" stroke-width="2.6" fill="none" stroke-linecap="round"/><path d="M0 5 L0 -20 M0 -20 L8 -15.6 M0 -15.2 L8 -10.8" class="meteo-gram-barb" stroke-width="1.3" fill="none" stroke-linecap="round"/></g>
<g transform="translate(82 166.88) rotate(79) scale(0.85)"><path d="M0 5 L0 -20 M0 -20 L8 -15.6 M0 -15.2 L8 -10.8" class="meteo-gram-barb-halo" stroke-width="2.6" fill="none" stroke-linecap="round"/><path d="M0 5 L0 -20 M0 -20 L8 -15.6 M0 -15.2 L8 -10.8" class="meteo-gram-barb" stroke-width="1.3" fill="none" stroke-linecap="round"/></g>
<g transform="translate(126 477.38) rotate(358) scale(0.85)"><path d="M0 5 L0 -20 M0 -20 L8 -15.6" class="meteo-gram-barb-halo" stroke-width="2.6" fill="none" stroke-linecap="round"/><path d="M0 5 L0 -20 M0 -20 L8 -15.6" class="meteo-gram-barb" stroke-width="1.3" fill="none" stroke-linecap="round"/></g>
<g transform="translate(126 419.4) rotate(351) scale(0.85)"><path d="M0 5 L0 -20 M0 -20 L8 -15.6 M0 -15.2 L4.5 -12.8" class="meteo-gram-barb-halo" stroke-width="2.6" fill="none" stroke-linecap="round"/><path d="M0 5 L0 -20 M0 -20 L8 -15.6 M0 -15.2 L4.5 -12.8" class="meteo-gram-barb" stroke-width="1.3" fill="none" stroke-linecap="round"/></g>
<g transform="translate(126 370.74) rotate(318) scale(0.85)"><path d="M0 5 L0 -20 M0 -20 L8 -15.6 M0 -15.2 L4.5 -12.8" class="meteo-gram-barb-halo" stroke-width="2.6" fill="none" stroke-linecap="round"/><path d="M0 5 L0 -20 M0 -20 L8 -15.6 M0 -15.2 L4.5 -12.8" class="meteo-gram-barb" stroke-width="1.3" fill="none" stroke-linecap="round"/></g>
<g transform="translate(126 283.16) rotate(37) scale(0.85)"><path d="M0 5 L0 -20 M0 -20 L8 -15.6 M0 -15.2 L8 -10.8" class="meteo-gram-barb-halo" stroke-width="2.6" fill="none" stroke-linecap="round"/><path d="M0 5 L0 -20 M0 -20 L8 -15.6 M0 -15.2 L8 -10.8" class="meteo-gram-barb" stroke-width="1.3" fill="none" stroke-linecap="round"/></g>
<g transform="translate(126 166.39) rotate(24) scale(0.85)"><path d="M0 5 L0 -20 M0 -20 L8 -15.6 M0 -15.2 L8 -10.8 M0 -10.4 L4.5 -8" class="meteo-gram-barb-halo" stroke-width="2.6" fill="none" stroke-linecap="round"/><path d="M0 5 L0 -20 M0 -20 L8 -15.6 M0 -15.2 L8 -10.8 M0 -10.4 L4.5 -8" class="meteo-gram-barb" stroke-width="1.3" fill="none" stroke-linecap="round"/></g>
<g transform="translate(170 477.38) rotate(2) scale(0.85)"><path d="M0 5 L0 -20 M0 -20 L8 -15.6" class="meteo-gram-barb-halo" stroke-width="2.6" fill="none" stroke-linecap="round"/><path d="M0 5 L0 -20 M0 -20 L8 -15.6" class="meteo-gram-barb" stroke-width="1.3" fill="none" stroke-linecap="round"/></g>
<g transform="translate(170 418.91) rotate(34) scale(0.85)"><path d="M0 5 L0 -20 M0 -20 L8 -15.6 M0 -15.2 L4.5 -12.8" class="meteo-gram-barb-halo" stroke-width="2.6" fill="none" stroke-linecap="round"/><path d="M0 5 L0 -20 M0 -20 L8 -15.6 M0 -15.2 L4.5 -12.8" class="meteo-gram-barb" stroke-width="1.3" fill="none" stroke-linecap="round"/></g>
<g transform="translate(170 370.26) rotate(342) scale(0.85)"><path d="M0 5 L0 -20 M0 -20 L8 -15.6 M0 -15.2 L4.5 -12.8" class="meteo-gram-barb-halo" stroke-width="2.6" fill="none" stroke-linecap="round"/><path d="M0 5 L0 -20 M0 -20 L8 -15.6 M0 -15.2 L4.5 -12.8" class="meteo-gram-barb" stroke-width="1.3" fill="none" stroke-linecap="round"/></g>
<g transform="translate(170 282.68) rotate(357) scale(0.85)"><path d="M0 5 L0 -20 M0 -20 L8 -15.6 M0 -15.2 L8 -10.8" class="meteo-gram-barb-halo" stroke-width="2.6" fill="none" stroke-linecap="round"/><path d="M0 5 L0 -20 M0 -20 L8 -15.6 M0 -15.2 L8 -10.8" class="meteo-gram-barb" stroke-width="1.3" fill="none" stroke-linecap="round"/></g>
<g transform="translate(170 165.9) rotate(19) scale(0.85)"><path d="M0 5 L0 -20 M0 -20 L8 -15.6 M0 -15.2 L8 -10.8 M0 -10.4 L4.5 -8" class="meteo-gram-barb-halo" stroke-width="2.6" fill="none" stroke-linecap="round"/><path d="M0 5 L0 -20 M0 -20 L8 -15.6 M0 -15.2 L8 -10.8 M0 -10.4 L4.5 -8" class="meteo-gram-barb" stroke-width="1.3" fill="none" stroke-linecap="round"/></g>
<g transform="translate(214 477.38) rotate(5) scale(0.85)"><path d="M0 5 L0 -20 M0 -20 L8 -15.6" class="meteo-gram-barb-halo" stroke-width="2.6" fill="none" stroke-linecap="round"/><path d="M0 5 L0 -20 M0 -20 L8 -15.6" class="meteo-gram-barb" stroke-width="1.3" fill="none" stroke-linecap="round"/></g>
<g transform="translate(214 418.42) rotate(352) scale(0.85)"><path d="M0 5 L0 -20 M0 -20 L8 -15.6 M0 -15.2 L4.5 -12.8" class="meteo-gram-barb-halo" stroke-width="2.6" fill="none" stroke-linecap="round"/><path d="M0 5 L0 -20 M0 -20 L8 -15.6 M0 -15.2 L4.5 -12.8" class="meteo-gram-barb" stroke-width="1.3" fill="none" stroke-linecap="round"/></g>
<g transform="translate(214 369.77) rotate(311) scale(0.85)"><path d="M0 5 L0 -20 M0 -20 L8 -15.6 M0 -15.2 L8 -10.8" class="meteo-gram-barb-halo" stroke-width="2.6" fill="none" stroke-linecap="round"/><path d="M0 5 L0 -20 M0 -20 L8 -15.6 M0 -15.2 L8 -10.8" class="meteo-gram-barb" stroke-width="1.3" fill="none" stroke-linecap="round"/></g>
<g transform="translate(214 282.19) rotate(1) scale(0.85)"><path d="M0 5 L0 -20 M0 -20 L8 -15.6 M0 -15.2 L8 -10.8" class="meteo-gram-barb-halo" stroke-width="2.6" fill="none" stroke-linecap="round"/><path d="M0 5 L0 -20 M0 -20 L8 -15.6 M0 -15.2 L8 -10.8" class="meteo-gram-barb" stroke-width="1.3" fill="none" stroke-linecap="round"/></g>
<g transform="translate(214 165.42) rotate(62) scale(0.85)"><path d="M0 5 L0 -20 M0 -20 L8 -15.6 M0 -15.2 L8 -10.8 M0 -10.4 L4.5 -8" class="meteo-gram-barb-halo" stroke-width="2.6" fill="none" stroke-linecap="round"/><path d="M0 5 L0 -20 M0 -20 L8 -15.6 M0 -15.2 L8 -10.8 M0 -10.4 L4.5 -8" class="meteo-gram-barb" stroke-width="1.3" fill="none" stroke-linecap="round"/></g>
<g transform="translate(258 477.38) rotate(8) scale(0.85)"><path d="M0 5 L0 -20 M0 -20 L8 -15.6" class="meteo-gram-barb-halo" stroke-width="2.6" fill="none" stroke-linecap="round"/><path d="M0 5 L0 -20 M0 -20 L8 -15.6" class="meteo-gram-barb" stroke-width="1.3" fill="none" stroke-linecap="round"/></g>
<g transform="translate(258 417.94) rotate(346) scale(0.85)"><path d="M0 5 L0 -20 M0 -20 L8 -15.6 M0 -15.2 L4.5 -12.8" class="meteo-gram-barb-halo" stroke-width="2.6" fill="none" stroke-linecap="round"/><path d="M0 5 L0 -20 M0 -20 L8 -15.6 M0 -15.2 L4.5 -12.8" class="meteo-gram-barb" stroke-width="1.3" fill="none" stroke-linecap="round"/></g>
<g transform="translate(258 369.28) rotate(21) scale(0.85)"><path d="M0 5 L0 -20 M0 -20 L8 -15.6 M0 -15.2 L8 -10.8" class="meteo-gram-barb-halo" stroke-width="2.6" fill="none" stroke-linecap="round"/><path d="M0 5 L0 -20 M0 -20 L8 -15.6 M0 -15.2 L8 -10.8" class="meteo-gram-barb" stroke-width="1.3" fill="none" stroke-linecap="round"/></g>
<g transform="translate(258 281.7) rotate(12) scale(0.85)"><path d="M0 5 L0 -20 M0 -20 L8 -15.6 M0 -15.2 L8 -10.8" class="meteo-gram-barb-halo" stroke-width="2.6" fill="none" stroke-linecap="round"/><path d="M0 5 L0 -20 M0 -20 L8 -15.6 M0 -15.2 L8 -10.8" class="meteo-gram-barb" stroke-width="1.3" fill="none" stroke-linecap="round"/></g>
<g transform="translate(258 164.93) rotate(38) scale(0.85)"><path d="M0 5 L0 -20 M0 -20 L8 -15.6 M0 -15.2 L8 -10.8 M0 -10.4 L4.5 -8" class="meteo-gram-barb-halo" stroke-width="2.6" fill="none" stroke-linecap="round"/><path d="M0 5 L0 -20 M0 -20 L8 -15.6 M0 -15.2 L8 -10.8 M0 -10.4 L4.5 -8" class="meteo-gram-barb" stroke-width="1.3" fill="none" stroke-linecap="round"/></g>
<g transform="translate(302 477.38) rotate(12) scale(0.85)"><path d="M0 5 L0 -20 M0 -20 L8 -15.6 M0 -15.2 L4.5 -12.8" class="meteo-gram-barb-halo" stroke-width="2.6" fill="none" stroke-linecap="round"/><path d="M0 5 L0 -20 M0 -20 L8 -15.6 M0 -15.2 L4.5 -12.8" class="meteo-gram-barb" stroke-width="1.3" fill="none" stroke-linecap="round"/></g>
<g transform="translate(302 417.45) rotate(15) scale(0.85)"><path d="M0 5 L0 -20 M0 -20 L8 -15.6 M0 -15.2 L4.5 -12.8" class="meteo-gram-barb-halo" stroke-width="2.6" fill="none" stroke-linecap="round"/><path d="M0 5 L0 -20 M0 -20 L8 -15.6 M0 -15.2 L4.5 -12.8" class="meteo-gram-barb" stroke-width="1.3" fill="none" stroke-linecap="round"/></g>
<g transform="translate(302 368.8) rotate(341) scale(0.85)"><path d="M0 5 L0 -20 M0 -20 L8 -15.6 M0 -15.2 L8 -10.8" class="meteo-gram-barb-halo" stroke-width="2.6" fill="none" stroke-linecap="round"/><path d="M0 5 L0 -20 M0 -20 L8 -15.6 M0 -15.2 L8 -10.8" class="meteo-gram-barb" stroke-width="1.3" fill="none" stroke-linecap="round"/></g>
<g transform="translate(302 281.22) rotate(82) scale(0.85)"><path d="M0 5 L0 -20 M0 -20 L8 -15.6 M0 -15.2 L8 -10.8 M0 -10.4 L4.5 -8" class="meteo-gram-barb-halo" stroke-width="2.6" fill="none" stroke-linecap="round"/><path d="M0 5 L0 -20 M0 -20 L8 -15.6 M0 -15.2 L8 -10.8 M0 -10.4 L4.5 -8" class="meteo-gram-barb" stroke-width="1.3" fill="none" stroke-linecap="round"/></g>
<g transform="translate(302 164.45) rotate(21) scale(0.85)"><path d="M0 5 L0 -20 M0 -20 L8 -15.6 M0 -15.2 L8 -10.8 M0 -10.4 L4.5 -8" class="meteo-gram-barb-halo" stroke-width="2.6" fill="none" stroke-linecap="round"/><path d="M0 5 L0 -20 M0 -20 L8 -15.6 M0 -15.2 L8 -10.8 M0 -10.4 L4.5 -8" class="meteo-gram-barb" stroke-width="1.3" fill="none" stroke-linecap="round"/></g>
<text x="82" y="455.38" text-anchor="middle" class="meteo-gram-gust meteo-gram-haloed-text meteo-gram-mono" stroke-width="2.2">G32</text>
<text x="126" y="455.38" text-anchor="middle" class="meteo-gram-gust meteo-gram-haloed-text meteo-gram-mono" stroke-width="2.2">G36</text>
<text x="170" y="455.38" text-anchor="middle" class="meteo-gram-gust meteo-gram-haloed-text meteo-gram-mono" stroke-width="2.2">G40</text>
<text x="214" y="455.38" text-anchor="middle" class="meteo-gram-gust meteo-gram-haloed-text meteo-gram-mono" stroke-width="2.2">G43</text>
<text x="258" y="455.38" text-anchor="middle" class="meteo-gram-gust meteo-gram-haloed-text meteo-gram-mono" stroke-width="2.2">G47</text>
<text x="302" y="455.38" text-anchor="middle" class="meteo-gram-gust meteo-gram-haloed-text meteo-gram-mono" stroke-width="2.2">G50</text>
<text x="298" y="242.85" text-anchor="end" class="meteo-gram-isotherm-label meteo-gram-isotherm-label-freezing meteo-gram-series-label meteo-gram-haloed-text" stroke-width="2.5">0°</text>
<text x="298" y="363.8" text-anchor="end" class="meteo-gram-isotherm-label meteo-gram-series-label meteo-gram-haloed-text" stroke-width="2.5">10°</text>
<text x="298" y="470.84" text-anchor="end" class="meteo-gram-isotherm-label meteo-gram-series-label meteo-gram-haloed-text" stroke-width="2.5">20°</text>
</svg>