<svg xmlns="http://www.w3.org/2000/svg" viewBox="0 0 420 560" role="img" aria-label="Sounding for Synthetic Ridge, model convective-cycle, 2000-01-01 15:00 UTC: temperature, dew point, and a lifted parcel over the flyable band, with a wind-barb ladder and derived-height marks. Dots are the model's published levels; the profile ends at the published column top — this is not a full skew-T." class="meteo-sounding">
<style>
.meteo-sounding text { font-family: var(--meteo-sounding-font, "IBM Plex Sans", ui-sans-serif, system-ui, sans-serif); }
.meteo-sounding .meteo-sounding-mono { font-family: var(--meteo-sounding-font-mono, "IBM Plex Mono", ui-monospace, monospace); }
.meteo-sounding-frame { fill: var(--meteo-sounding-surface, #fffdf8); stroke: var(--meteo-sounding-rule, #776956); }
.meteo-sounding-gridline { stroke: var(--meteo-sounding-rule, #776956); }
.meteo-sounding-tick { fill: var(--meteo-sounding-ink-mute, #40565a); font-size: var(--meteo-sounding-text-tick, 10.5px); }
.meteo-sounding-unit { fill: var(--meteo-sounding-ink-mute, #40565a); font-size: var(--meteo-sounding-text-unit, 9.5px); }
.meteo-sounding-trace-label { fill: var(--meteo-sounding-ink-soft, #2f454a); font-size: var(--meteo-sounding-text-trace-label, 10.5px); font-weight: 600; }
.meteo-sounding-mark-label { fill: var(--meteo-sounding-ink-soft, #2f454a); font-size: var(--meteo-sounding-text-mark-label, 10px); font-weight: 600; }
.meteo-sounding-note { fill: var(--meteo-sounding-ink-mute, #40565a); font-size: var(--meteo-sounding-text-note, 9.5px); font-style: italic; }
.meteo-sounding-haloed-text { stroke: var(--meteo-sounding-halo, #fffdf8); paint-order: stroke; }
.meteo-sounding-temp { stroke: var(--meteo-sounding-temp, #913b0c); }
.meteo-sounding-temp-dot { fill: var(--meteo-sounding-temp, #913b0c); stroke: var(--meteo-sounding-halo, #fffdf8); }
.meteo-sounding-temp-band { fill: var(--meteo-sounding-temp, #913b0c); opacity: 0.14; }
.meteo-sounding-dewpoint { stroke: var(--meteo-sounding-dewpoint, #2e8b50); }
.meteo-sounding-dewpoint-dot { fill: var(--meteo-sounding-dewpoint, #2e8b50); stroke: var(--meteo-sounding-halo, #fffdf8); }
.meteo-sounding-dewpoint-band { fill: var(--meteo-sounding-dewpoint, #2e8b50); opacity: 0.14; }
.meteo-sounding-parcel { stroke: var(--meteo-sounding-parcel, #7b5ea7); }
.meteo-sounding-parcel-dot { fill: var(--meteo-sounding-parcel, #7b5ea7); stroke: var(--meteo-sounding-halo, #fffdf8); }
.meteo-sounding-parcel-band { fill: var(--meteo-sounding-parcel, #7b5ea7); opacity: 0.14; }
.meteo-sounding-mark-boundary { stroke: var(--meteo-sounding-boundary, #a46b10); }
.meteo-sounding-mark-boundary-band { fill: var(--meteo-sounding-boundary, #a46b10); opacity: 0.14; }
.meteo-sounding-mark-cloud-base { stroke: var(--meteo-sounding-cloud-base, #355963); }
.meteo-sounding-mark-cloud-base-band { fill: var(--meteo-sounding-cloud-base, #355963); opacity: 0.14; }
.meteo-sounding-mark-usable { stroke: var(--meteo-sounding-usable, #2179ad); }
.meteo-sounding-mark-usable-band { fill: var(--meteo-sounding-usable, #2179ad); opacity: 0.14; }
.meteo-sounding-mark-launch { stroke: var(--meteo-sounding-launch, #152529); }
.meteo-sounding-mark-launch-band { fill: var(--meteo-sounding-launch, #152529); opacity: 0.14; }
.meteo-sounding-lcl { fill: var(--meteo-sounding-lcl, #7b5ea7); stroke: var(--meteo-sounding-halo, #fffdf8); }
.meteo-sounding-lcl-line { stroke: var(--meteo-sounding-lcl, #7b5ea7); }
.meteo-sounding-barb { stroke: var(--meteo-sounding-wind, #355963); }
.meteo-sounding-barb-fill { fill: var(--meteo-sounding-wind, #355963); stroke: var(--meteo-sounding-wind, #355963); }
.meteo-sounding-key-label { fill: var(--meteo-sounding-ink-mute, #40565a); font-size: var(--meteo-sounding-text-key-label, 10.5px); }
.meteo-sounding-key-band { fill: var(--meteo-sounding-ink-mute, #40565a); opacity: 0.16; }
.meteo-sounding-key-frame { fill: none; stroke: var(--meteo-sounding-rule, #776956); }
</style>
<rect x="48" y="20" width="292" height="490" class="meteo-sounding-frame"/>
<line x1="48" y1="510" x2="340" y2="510" class="meteo-sounding-gridline" stroke-width="1" opacity="0.28"/>
<text x="40" y="513" text-anchor="end" class="meteo-sounding-tick">900m</text>
<line x1="48" y1="412" x2="340" y2="412" class="meteo-sounding-gridline" stroke-width="1" opacity="0.28"/>
<text x="40" y="415" text-anchor="end" class="meteo-sounding-tick">1604m</text>
<line x1="48" y1="314" x2="340" y2="314" class="meteo-sounding-gridline" stroke-width="1" opacity="0.28"/>
<text x="40" y="317" text-anchor="end" class="meteo-sounding-tick">2308m</text>
<line x1="48" y1="216" x2="340" y2="216" class="meteo-sounding-gridline" stroke-width="1" opacity="0.28"/>
<text x="40" y="219" text-anchor="end" class="meteo-sounding-tick">3012m</text>
<line x1="48" y1="118" x2="340" y2="118" class="meteo-sounding-gridline" stroke-width="1" opacity="0.28"/>
<text x="40" y="121" text-anchor="end" class="meteo-sounding-tick">3716m</text>
<line x1="48" y1="20" x2="340" y2="20" class="meteo-sounding-gridline" stroke-width="1" opacity="0.28"/>
<text x="40" y="23" text-anchor="end" class="meteo-sounding-tick">4420m</text>
<text x="348" y="14" class="meteo-sounding-unit meteo-sounding-mono">hPa</text>
<line x1="340" y1="482.16" x2="344" y2="482.16" class="meteo-sounding-gridline" stroke-width="1" opacity="0.6"/>
<text x="348" y="485.16" class="meteo-sounding-tick meteo-sounding-mono" opacity="0.7">925</text>
<line x1="340" y1="447.36" x2="344" y2="447.36" class="meteo-sounding-gridline" stroke-width="1" opacity="0.6"/>
<text x="348" y="450.36" class="meteo-sounding-tick meteo-sounding-mono" opacity="0.7">900</text>
<line x1="340" y1="391.68" x2="344" y2="391.68" class="meteo-sounding-gridline" stroke-width="1" opacity="0.6"/>
<text x="348" y="394.68" class="meteo-sounding-tick meteo-sounding-mono" opacity="0.7">850</text>
<line x1="340" y1="329.03" x2="344" y2="329.03" class="meteo-sounding-gridline" stroke-width="1" opacity="0.6"/>
<text x="348" y="332.03" class="meteo-sounding-tick meteo-sounding-mono" opacity="0.7">800</text>
<line x1="340" y1="266.39" x2="344" y2="266.39" class="meteo-sounding-gridline" stroke-width="1" opacity="0.6"/>
<text x="348" y="269.39" class="meteo-sounding-tick meteo-sounding-mono" opacity="0.7">750</text>
<line x1="340" y1="196.79" x2="344" y2="196.79" class="meteo-sounding-gridline" stroke-width="1" opacity="0.6"/>
<text x="348" y="199.79" class="meteo-sounding-tick meteo-sounding-mono" opacity="0.7">700</text>
<line x1="340" y1="127.19" x2="344" y2="127.19" class="meteo-sounding-gridline" stroke-width="1" opacity="0.6"/>
<text x="348" y="130.19" class="meteo-sounding-tick meteo-sounding-mono" opacity="0.7">650</text>
<line x1="340" y1="43.66" x2="344" y2="43.66" class="meteo-sounding-gridline" stroke-width="1" opacity="0.6"/>
<text x="348" y="46.66" class="meteo-sounding-tick meteo-sounding-mono" opacity="0.7">600</text>
<line x1="80.44" x2="80.44" y1="20" y2="510" class="meteo-sounding-gridline" stroke-width="0.6" opacity="0.12"/>
<text x="80.44" y="526" text-anchor="middle" class="meteo-sounding-tick meteo-sounding-mono">-10°</text>
<line x1="145.33" x2="145.33" y1="20" y2="510" class="meteo-sounding-gridline" stroke-width="0.6" opacity="0.12"/>
<text x="145.33" y="526" text-anchor="middle" class="meteo-sounding-tick meteo-sounding-mono">0°</text>
<line x1="210.22" x2="210.22" y1="20" y2="510" class="meteo-sounding-gridline" stroke-width="0.6" opacity="0.12"/>
<text x="210.22" y="526" text-anchor="middle" class="meteo-sounding-tick meteo-sounding-mono">10°</text>
<line x1="275.11" x2="275.11" y1="20" y2="510" class="meteo-sounding-gridline" stroke-width="0.6" opacity="0.12"/>
<text x="275.11" y="526" text-anchor="middle" class="meteo-sounding-tick meteo-sounding-mono">20°</text>
<line x1="340" x2="340" y1="20" y2="510" class="meteo-sounding-gridline" stroke-width="0.6" opacity="0.12"/>
<text x="340" y="526" text-anchor="middle" class="meteo-sounding-tick meteo-sounding-mono">30°</text>
<text x="194" y="540" text-anchor="middle" class="meteo-sounding-unit">°C</text>
<text x="397" y="14" text-anchor="middle" class="meteo-sounding-unit meteo-sounding-mono">km/h</text>
<line x1="48" x2="340" y1="241.53" y2="241.53" class="meteo-sounding-mark-boundary" stroke-width="1.3" stroke-dasharray="10 5"/>
<line x1="48" x2="340" y1="149.53" y2="149.53" class="meteo-sounding-mark-cloud-base" stroke-width="1.3" stroke-dasharray="1 5"/>
<line x1="48" x2="340" y1="206.21" y2="206.21" class="meteo-sounding-mark-usable" stroke-width="1.3"/>
<line x1="48" x2="340" y1="489.12" y2="489.12" class="meteo-sounding-mark-launch" stroke-width="1.3" stroke-dasharray="2 4"/>
<path d="M307.56 510L294.84 482.16L278.94 447.36L253.5 391.68L224.89 329.03L196.27 266.39L164.48 196.79L136.43 127.19L113.3 43.66" class="meteo-sounding-parcel" fill="none" stroke-width="2" stroke-linecap="round" stroke-linejoin="round" stroke-dasharray="6 4"/>
<path d="M307.56 510L293.28 482.16L277.71 447.36L250.45 391.68L221.9 329.03L194.65 266.39L167.4 196.79L140.14 127.19L112.89 43.66" class="meteo-sounding-temp" fill="none" stroke-width="2" stroke-linecap="round" stroke-linejoin="round"/>
<path d="M171.29 510L215.41 482.16L206.33 447.36L185.56 391.68L163.5 329.03L142.74 266.39L121.97 196.79L101.21 127.19L67.47 43.66" class="meteo-sounding-dewpoint" fill="none" stroke-width="2" stroke-linecap="round" stroke-linejoin="round"/>
<circle cx="307.56" cy="510" r="2.75" class="meteo-sounding-temp-dot" stroke-width="2"/>
<circle cx="293.28" cy="482.16" r="2.75" class="meteo-sounding-temp-dot" stroke-width="2"/>
<circle cx="277.71" cy="447.36" r="2.75" class="meteo-sounding-temp-dot" stroke-width="2"/>
<circle cx="250.45" cy="391.68" r="2.75" class="meteo-sounding-temp-dot" stroke-width="2"/>
<circle cx="221.9" cy="329.03" r="2.75" class="meteo-sounding-temp-dot" stroke-width="2"/>
<circle cx="194.65" cy="266.39" r="2.75" class="meteo-sounding-temp-dot" stroke-width="2"/>
<circle cx="167.4" cy="196.79" r="2.75" class="meteo-sounding-temp-dot" stroke-width="2"/>
<circle cx="140.14" cy="127.19" r="2.75" class="meteo-sounding-temp-dot" stroke-width="2"/>
<circle cx="112.89" cy="43.66" r="2.75" class="meteo-sounding-temp-dot" stroke-width="2"/>
<circle cx="171.29" cy="510" r="2.75" class="meteo-sounding-dewpoint-dot" stroke-width="2"/>
<circle cx="215.41" cy="482.16" r="2.75" class="meteo-sounding-dewpoint-dot" stroke-width="2"/>
<circle cx="206.33" cy="447.36" r="2.75" class="meteo-sounding-dewpoint-dot" stroke-width="2"/>
<circle cx="185.56" cy="391.68" r="2.75" class="meteo-sounding-dewpoint-dot" stroke-width="2"/>
<circle cx="163.5" cy="329.03" r="2.75" class="meteo-sounding-dewpoint-dot" stroke-width="2"/>
<circle cx="142.74" cy="266.39" r="2.75" class="meteo-sounding-dewpoint-dot" stroke-width="2"/>
<circle cx="121.97" cy="196.79" r="2.75" class="meteo-sounding-dewpoint-dot" stroke-width="2"/>
<circle cx="101.21" cy="127.19" r="2.75" class="meteo-sounding-dewpoint-dot" stroke-width="2"/>
<circle cx="67.47" cy="43.66" r="2.75" class="meteo-sounding-dewpoint-dot" stroke-width="2"/>
<circle cx="144.44" cy="147.07" r="3.2" class="meteo-sounding-lcl" stroke-width="1.2"/>
<text x="54" y="485.12" text-anchor="start" class="meteo-sounding-mark-label meteo-sounding-haloed-text" stroke-width="2.5">launch 1050 m</text>
<text x="334" y="143.07" text-anchor="end" class="meteo-sounding-mark-label meteo-sounding-haloed-text" stroke-width="2.5">LCL 3507 m</text>
<line x1="337.5" x2="337.5" y1="149.53" y2="151.57" class="meteo-sounding-mark-cloud-base" stroke-width="1"/>
<text x="334" y="155.07" text-anchor="end" class="meteo-sounding-mark-label meteo-sounding-haloed-text" stroke-width="2.5">cloud base 3490 m</text>
<text x="334" y="202.21" text-anchor="end" class="meteo-sounding-mark-label meteo-sounding-haloed-text" stroke-width="2.5">usable lift 3082 m</text>
<text x="334" y="237.53" text-anchor="end" class="meteo-sounding-mark-label meteo-sounding-haloed-text" stroke-width="2.5">BL top 2829 m</text>
<line x1="252" x2="264" y1="485.5" y2="485.5" class="meteo-sounding-temp" stroke-width="2" stroke-linecap="round"/>
<text x="268" y="489" text-anchor="start" class="meteo-sounding-trace-label meteo-sounding-haloed-text" stroke-width="2.5">Temperature</text>
<line x1="197.51" x2="209.51" y1="498.5" y2="498.5" class="meteo-sounding-dewpoint" stroke-width="2" stroke-linecap="round"/>
<text x="213.51" y="502" text-anchor="start" class="meteo-sounding-trace-label meteo-sounding-haloed-text" stroke-width="2.5">Dew point</text>
<line x1="283" x2="295" y1="498.5" y2="498.5" class="meteo-sounding-parcel" stroke-width="2" stroke-linecap="round" stroke-dasharray="6 4"/>
<text x="299" y="502" text-anchor="start" class="meteo-sounding-trace-label meteo-sounding-haloed-text" stroke-width="2.5">Parcel</text>
<g transform="translate(397 510) rotate(175)"><path d="M0 5 L0 -20 M0 -20 L8 -15.6" class="meteo-sounding-barb" stroke-width="1.3" fill="none" stroke-linecap="round"/></g>
<g transform="translate(397 482.16) rotate(183)"><path d="M0 5 L0 -20 M0 -20 L8 -15.6 M0 -15.2 L4.5 -12.8" class="meteo-sounding-barb" stroke-width="1.3" fill="none" stroke-linecap="round"/></g>
<g transform="translate(397 447.36) rotate(191)"><path d="M0 5 L0 -20 M0 -20 L8 -15.6 M0 -15.2 L4.5 -12.8" class="meteo-sounding-barb" stroke-width="1.3" fill="none" stroke-linecap="round"/></g>
<g transform="translate(397 391.68) rotate(199)"><path d="M0 5 L0 -20 M0 -20 L8 -15.6 M0 -15.2 L4.5 -12.8" class="meteo-sounding-barb" stroke-width="1.3" fill="none" stroke-linecap="round"/></g>
<g transform="translate(397 329.03) rotate(207)"><path d="M0 5 L0 -20 M0 -20 L8 -15.6 M0 -15.2 L4.5 -12.8" class="meteo-sounding-barb" stroke-width="1.3" fill="none" stroke-linecap="round"/></g>
<g transform="translate(397 266.39) rotate(215)"><path d="M0 5 L0 -20 M0 -20 L8 -15.6 M0 -15.2 L8 -10.8" class="meteo-sounding-barb" stroke-width="1.3" fill="none" stroke-linecap="round"/></g>
<g transform="translate(397 196.79) rotate(223)"><path d="M0 5 L0 -20 M0 -20 L8 -15.6 M0 -15.2 L8 -10.8" class="meteo-sounding-barb" stroke-width="1.3" fill="none" stroke-linecap="round"/></g>
<g transform="translate(397 127.19) rotate(231)"><path d="M0 5 L0 -20 M0 -20 L8 -15.6 M0 -15.2 L8 -10.8 M0 -10.4 L4.5 -8" class="meteo-sounding-barb" stroke-width="1.3" fill="none" stroke-linecap="round"/></g>
<g transform="translate(397 43.66) rotate(237)"><path d="M0 5 L0 -20 M0 -20 L8 -15.6 M0 -15.2 L8 -10.8 M0 -10.4 L4.5 -8" class="meteo-sounding-barb" stroke-width="1.3" fill="none" stroke-linecap="round"/></g>
<text x="194" y="555" text-anchor="middle" class="meteo-sounding-note">8 published levels · top of column 4250 m</text>
</svg>